<svg width="3277" height="453" viewBox="0 0 3277 453" fill="none" xmlns="http://www.w3.org/2000/svg">
<g clip-path="url(#clip0_16093_599152)">
<path d="M662.392 173.137H642.869L625.884 190.008L618.94 196.896H291.906L281.615 207.102L269.65 219.009H596.572L555.658 259.639L521.438 293.604L484.54 330.274L477.595 337.162H116.982L0.236328 453.085H80.921C90.215 453.081 99.4173 451.248 108.002 447.688C116.587 444.128 124.387 438.912 130.955 432.337L176.025 387.19H459.327C473.744 387.19 488.018 384.345 501.333 378.818C514.647 373.291 526.739 365.191 536.916 354.981L678.791 212.763C682.07 209.53 684.31 205.393 685.225 200.881C686.14 196.369 685.688 191.686 683.928 187.432C682.167 183.178 679.178 179.545 675.341 176.999C671.505 174.452 666.997 173.108 662.392 173.137V173.137Z" fill="#6D5BD0"/>
<path d="M347.015 -0.286133L276.9 69.3453H713.485L783.655 -0.286133H347.015Z" fill="#70C250"/>
<path d="M110.231 313.404H467.804L504.702 276.762L538.894 242.769H212L237.101 217.671L282.059 173.053H609.009L679.151 103.338H242.539L87.2776 257.548C82.6389 262.085 79.4607 267.903 78.1505 274.257C76.8403 280.611 77.4578 287.211 79.9238 293.212C82.3898 299.213 86.5919 304.341 91.9916 307.938C97.3912 311.536 103.742 313.439 110.231 313.404V313.404Z" fill="#70C250"/>
<g clip-path="url(#clip1_16093_599152)">
<path d="M1319.96 129.998H1131.97V322.998H1177.28V260.447H1319.96C1327.95 260.615 1335.86 258.814 1342.97 255.206C1350.09 251.597 1356.2 246.292 1360.76 239.764C1370.49 227.055 1375.56 211.422 1375.13 195.455C1375.48 179.379 1370.42 163.647 1360.76 150.759C1356.21 144.214 1350.11 138.892 1342.99 135.269C1335.87 131.646 1327.96 129.835 1319.96 129.998V129.998ZM1319.96 215.208H1177.28V175.005H1319.96C1326.53 175.005 1329.81 181.77 1329.81 195.3C1329.81 208.624 1326.54 215.247 1319.96 215.247V215.208Z" fill="white"/>
<path d="M1816.73 130.002H1688.26C1680.79 129.788 1673.36 131.259 1666.54 134.304C1659.72 137.349 1653.67 141.89 1648.86 147.586C1638.68 159.197 1633.21 174.165 1633.52 189.571V323.002H1678.84V189.648C1678.84 179.966 1681.99 175.008 1688.26 175.008H1816.73C1823.31 175.008 1826.58 179.966 1826.58 189.648V216.761H1707.3V261.844H1826.58V323.04H1871.86V189.571C1872.18 174.171 1866.73 159.203 1856.56 147.586C1851.68 141.865 1845.56 137.313 1838.66 134.269C1831.77 131.225 1824.27 129.766 1816.73 130.002Z" fill="white"/>
<path d="M2099.14 189.647C2099.14 199.201 2096 203.978 2089.72 203.978H1961.4C1955.1 203.978 1951.94 199.201 1951.94 189.647V130H1906.59V189.647C1906.19 204.839 1911.59 219.617 1921.69 231.012C1926.51 236.81 1932.59 241.444 1939.47 244.564C1946.34 247.684 1953.85 249.209 1961.4 249.022H2003.25V323H2048.61V249.022H2089.87C2097.47 249.182 2105.01 247.648 2111.94 244.531C2118.86 241.415 2125 236.795 2129.9 231.012C2139.7 219.483 2144.86 204.744 2144.38 189.647V130H2099.14V189.647Z" fill="white"/>
<path d="M3056.48 130V175.045H3144.07V323H3189.39V175.045H3276.98V130H3056.48Z" fill="white"/>
<path d="M1461.19 289.265V130H1404.7V300.729C1404.7 306.295 1406.79 311.66 1410.55 315.778C1414.32 319.896 1419.49 322.47 1425.06 323H1599.08V289.265H1461.19Z" fill="white"/>
<path d="M890 300.461C889.99 303.421 890.568 306.354 891.7 309.091C892.833 311.828 894.498 314.315 896.6 316.41C898.702 318.505 901.199 320.166 903.948 321.297C906.697 322.429 909.644 323.008 912.619 323.003H1096.92V277.997H935.316V249.026H1097.15V203.981H890V300.461Z" fill="white"/>
<path d="M890 130V175.045H935.315H1097.27V130H890Z" fill="#70C250"/>
<path d="M2537.59 300.463C2537.58 303.422 2538.16 306.352 2539.3 309.087C2540.43 311.822 2542.1 314.307 2544.2 316.401C2546.3 318.494 2548.79 320.155 2551.54 321.289C2554.29 322.422 2557.23 323.005 2560.21 323.005H2744.31V277.999H2582.71V249.028H2744.31V203.983H2537.59V300.463Z" fill="white"/>
<path d="M2537.4 130V175.045H2582.71H2744.67V130H2537.4Z" fill="white"/>
<path d="M3008.65 147.582C3003.78 141.853 2997.67 137.295 2990.78 134.25C2983.89 131.205 2976.4 129.751 2968.86 129.998H2840.39C2832.91 129.784 2825.48 131.255 2818.65 134.299C2811.82 137.344 2805.77 141.885 2800.95 147.582C2790.81 159.216 2785.36 174.172 2785.65 189.567V322.998H2831.12V189.644C2831.12 179.961 2834.28 175.004 2840.54 175.004H2969.02C2975.56 175.004 2978.83 179.961 2978.83 189.644V322.998H3024.22V189.567C3024.47 174.131 3018.91 159.158 3008.65 147.582Z" fill="white"/>
<path d="M2483.08 147.581C2478.2 141.856 2472.09 137.301 2465.19 134.256C2458.3 131.211 2450.8 129.755 2443.26 129.996H2371.74C2360.15 129.723 2348.82 133.475 2339.7 140.609C2330.47 133.459 2319.04 129.709 2307.35 129.996H2235.64C2228.15 129.788 2220.72 131.261 2213.88 134.305C2207.05 137.35 2200.99 141.887 2196.16 147.581C2186.04 159.218 2180.6 174.175 2180.9 189.566V322.996H2226.14V189.643C2226.14 179.96 2229.29 175.003 2235.6 175.003H2307.31C2313.58 175.003 2316.77 179.65 2317 188.636C2317 188.946 2317 189.217 2317 189.566V322.996H2362.4V189.566C2362.4 189.295 2362.4 189.101 2362.4 188.791C2362.4 179.689 2365.63 175.003 2371.74 175.003H2443.37C2449.95 175.003 2453.22 179.96 2453.22 189.643V322.996H2498.66V189.566C2498.9 174.13 2493.35 159.157 2483.08 147.581Z" fill="white"/>
</g>
</g>
<defs>
<clipPath id="clip0_16093_599152">
<rect width="3277" height="453" fill="white"/>
</clipPath>
<clipPath id="clip1_16093_599152">
<rect width="2387" height="193" fill="white" transform="translate(890 130)"/>
</clipPath>
</defs>
</svg>